<svg xmlns="http://www.w3.org/2000/svg" width="26" height="26" viewBox="0 0 26 26" fill="none">
    <path opacity="0.2"
        d="M13.8125 4.875V17.875H8.9375V8.125H4.0625V4.875C4.0625 4.65951 4.1481 4.45285 4.30048 4.30047C4.45285 4.1481 4.65951 4.0625 4.875 4.0625H8.125C8.34049 4.0625 8.54715 4.1481 8.69952 4.30047C8.8519 4.45285 8.9375 4.65951 8.9375 4.875C8.9375 4.65951 9.0231 4.45285 9.17548 4.30047C9.32785 4.1481 9.53451 4.0625 9.75 4.0625H13C13.2155 4.0625 13.4222 4.1481 13.5745 4.30047C13.7269 4.45285 13.8125 4.65951 13.8125 4.875ZM22.943 20.0687L22.1 16.9305L17.3875 18.2L18.2305 21.3383C18.2875 21.5454 18.4242 21.7215 18.6107 21.8281C18.7972 21.9347 19.0184 21.9631 19.2258 21.907L22.3641 21.0641C22.4675 21.0369 22.5646 20.9896 22.6498 20.9248C22.7349 20.8601 22.8065 20.7791 22.8603 20.6866C22.914 20.5942 22.949 20.492 22.9632 20.3859C22.9774 20.2799 22.9705 20.1721 22.943 20.0687ZM18.7383 4.37734C18.6811 4.16981 18.5449 3.99296 18.3588 3.88473C18.1727 3.7765 17.9516 3.74552 17.743 3.79843L14.6047 4.6414C14.3972 4.69858 14.2203 4.83482 14.1121 5.0209C14.0039 5.20697 13.9729 5.42806 14.0258 5.63671L14.8687 8.775L19.5813 7.51562L18.7383 4.37734Z"
        fill="var(--color)" />
    <path
        d="M23.725 19.8656L19.5203 4.16406C19.4085 3.74793 19.1359 3.39326 18.7626 3.17804C18.3893 2.96283 17.9458 2.90468 17.5297 3.0164L14.3914 3.85937L14.2898 3.88984C14.1385 3.69126 13.9433 3.53023 13.7197 3.41926C13.496 3.3083 13.2497 3.25038 13 3.25H9.75C9.4641 3.25076 9.18359 3.3279 8.9375 3.47343C8.69141 3.3279 8.4109 3.25076 8.125 3.25H4.875C4.44402 3.25 4.0307 3.4212 3.72595 3.72595C3.4212 4.03069 3.25 4.44402 3.25 4.875V21.125C3.25 21.556 3.4212 21.9693 3.72595 22.274C4.0307 22.5788 4.44402 22.75 4.875 22.75H8.125C8.4109 22.7492 8.69141 22.6721 8.9375 22.5266C9.18359 22.6721 9.4641 22.7492 9.75 22.75H13C13.431 22.75 13.8443 22.5788 14.149 22.274C14.4538 21.9693 14.625 21.556 14.625 21.125V11.0094L17.4484 21.5414C17.5404 21.8885 17.7448 22.1953 18.0296 22.4139C18.3144 22.6326 18.6636 22.7508 19.0227 22.75C19.1628 22.7476 19.3024 22.7305 19.4391 22.6992L22.5773 21.8562C22.9935 21.7444 23.3481 21.4719 23.5634 21.0986C23.7786 20.7253 23.8367 20.2818 23.725 19.8656ZM15.8641 9.3539L19.0023 8.51093L21.1047 16.3617L17.9664 17.2047L15.8641 9.3539ZM17.9461 4.59062L18.5859 6.93672L15.4477 7.77968L14.8078 5.43359L17.9461 4.59062ZM13 4.875V17.0625H9.75V4.875H13ZM8.125 4.875V7.3125H4.875V4.875H8.125ZM4.875 21.125V8.9375H8.125V21.125H4.875ZM13 21.125H9.75V18.6875H13V21.125ZM22.1609 20.282L19.0227 21.125L18.3828 18.7687L21.5313 17.9258L22.1609 20.282Z"
        fill="var(--color)" />
</svg>